<?xml version="1.0" encoding="iso-8859-1"?>
<!-- Generator: Adobe Illustrator 19.0.0, SVG Export Plug-In . SVG Version: 6.00 Build 0)  -->
<svg version="1.1" id="Layer_1" xmlns="http://www.w3.org/2000/svg" xmlns:xlink="http://www.w3.org/1999/xlink" x="0px" y="0px"
	 viewBox="0 0 511.999 511.999" style="enable-background:new 0 0 511.999 511.999;" xml:space="preserve">
<path style="fill:#ED5D51;" d="M402.158,241.11c0-100.381-114.556-181.759-146.158-181.759
	c-27.653,0-146.158,81.378-146.158,181.759H402.158z"/>
<g style="opacity:0.1;">
	<path style="fill:#414042;" d="M278.576,66.214c-9.301-4.469-17.158-6.863-22.576-6.863c-27.653,0-146.158,81.378-146.158,181.759
		h43.757C153.598,157.938,234.95,87.816,278.576,66.214z"/>
</g>
<path style="fill:#F1F2F2;" d="M296.019,47.229c0,21.754-17.55,39.394-39.201,39.394c-21.644,0-39.193-17.64-39.193-39.394
	c0-21.758,17.549-39.393,39.193-39.393C278.469,7.837,296.019,25.471,296.019,47.229z"/>
<g style="opacity:0.1;">
	<path style="fill:#414042;" d="M239.303,47.229c0-17.976,11.986-33.127,28.356-37.855c-3.444-0.995-7.077-1.539-10.841-1.539
		c-21.644,0-39.193,17.635-39.193,39.393c0,21.754,17.549,39.394,39.193,39.394c3.764,0,7.397-0.544,10.841-1.538
		C251.288,80.357,239.303,65.202,239.303,47.229z"/>
</g>
<g>
	<path style="fill:#FFE2C5;" d="M122.432,275.573c-2.146-0.371-4.349-0.574-6.602-0.567c-21.051,0.053-38.073,17.247-38.02,38.402
		c0.055,21.157,17.162,38.263,38.213,38.21c2.186-0.006,4.325-0.206,6.408-0.565V275.573z"/>
	<path style="fill:#FFE2C5;" d="M395.975,274.29c-1.822,0.004-3.612,0.147-5.366,0.398v75.819c1.816,0.262,3.671,0.401,5.56,0.396
		c21.051-0.053,38.072-17.247,38.019-38.404C434.133,291.343,417.026,274.234,395.975,274.29z"/>
</g>
<g style="opacity:0.1;">
	<path style="fill:#414042;" d="M79.26,302.856c-0.945,3.355-1.459,6.891-1.449,10.552c0.055,21.157,17.162,38.263,38.213,38.21
		c2.186-0.006,4.325-0.206,6.408-0.565v-20.908c-2.084,0.359-4.222,0.559-6.408,0.565C98.548,330.753,83.799,318.968,79.26,302.856z
		"/>
</g>
<g style="opacity:0.1;">
	<path style="fill:#414042;" d="M396.169,329.994c-1.89,0.005-3.744-0.134-5.56-0.396v20.908c1.816,0.262,3.671,0.401,5.56,0.396
		c21.051-0.053,38.072-17.247,38.019-38.404c-0.01-3.592-0.52-7.061-1.449-10.355C428.221,318.178,413.579,329.951,396.169,329.994z
		"/>
</g>
<path style="fill:#F1F2F2;" d="M115.926,250.643v117.219c0,75.278,60.885,136.302,135.993,136.302h8.158
	c75.108,0,135.996-61.024,135.996-136.302V250.643H115.926z"/>
<g style="opacity:0.05;">
	<path style="fill:#414042;" d="M260.077,471.382h-8.158c-75.108,0-135.993-61.024-135.993-136.302v32.782
		c0,75.278,60.885,136.302,135.993,136.302h8.158c75.108,0,135.996-61.024,135.996-136.302V335.08
		C396.073,410.358,335.185,471.382,260.077,471.382z"/>
</g>
<path style="fill:#FFE2C5;" d="M142.362,250.253c-0.036,0.871-0.066,1.746-0.066,2.627v43.58c0,34.06,27.365,61.67,61.13,61.67
	c22.366,0,41.915-12.123,52.573-30.204c10.656,18.082,30.207,30.204,52.572,30.204c33.764,0,61.131-27.61,61.131-61.67v-43.58
	c0-0.881-0.028-1.755-0.066-2.627H142.362z"/>
<g style="opacity:0.1;">
	<path style="fill:#414042;" d="M308.571,344.837c-22.364,0-41.915-12.123-52.572-30.204
		c-10.658,18.082-30.207,30.204-52.573,30.204c-33.764,0-61.13-27.61-61.13-61.67v10.7c0,34.06,27.365,61.67,61.13,61.67
		c22.366,0,41.915-12.123,52.573-30.204c10.656,18.082,30.207,30.204,52.572,30.204c33.764,0,61.131-27.61,61.131-61.67v-10.7
		C369.701,317.28,342.334,344.837,308.571,344.837z"/>
</g>
<g>
	<path style="fill:#636052;" d="M207.423,310.714c0,9.174-7.399,16.612-16.528,16.612l0,0c-9.127,0-16.526-7.438-16.526-16.612l0,0
		c0-9.171,7.399-16.611,16.526-16.611l0,0C200.024,294.104,207.423,301.543,207.423,310.714L207.423,310.714z"/>
	<path style="fill:#636052;" d="M327.464,310.714c0,9.174-7.398,16.612-16.526,16.612l0,0c-9.125,0-16.527-7.438-16.527-16.612l0,0
		c0-9.171,7.402-16.611,16.527-16.611l0,0C320.066,294.104,327.464,301.543,327.464,310.714L327.464,310.714z"/>
</g>
<path style="fill:#ED5D51;" d="M284.587,347.951c0,15.867-12.8,28.729-28.585,28.729l0,0c-15.789,0-28.589-12.863-28.589-28.729l0,0
	c0-15.867,12.8-28.73,28.589-28.73l0,0C271.787,319.22,284.587,332.084,284.587,347.951L284.587,347.951z"/>
<path style="fill:#F1F2F2;" d="M420.371,226.92c0,17.19-13.866,31.124-30.97,31.124H122.595c-17.103,0-30.969-13.935-30.969-31.124
	l0,0c0-17.19,13.866-31.124,30.969-31.124h266.806C406.506,195.796,420.371,209.731,420.371,226.92L420.371,226.92z"/>
<g style="opacity:0.1;">
	<path style="fill:#414042;" d="M134.954,226.92c0-17.19,13.864-31.124,30.968-31.124h-43.327
		c-17.103,0-30.969,13.935-30.969,31.124s13.866,31.124,30.969,31.124h43.327C148.819,258.045,134.954,244.11,134.954,226.92z"/>
</g>
<path style="fill:#636052;" d="M442.025,312.478c-0.06-22.696-16.555-41.594-38.115-45.339v-4.094
	c14.229-5.78,24.298-19.789,24.298-36.124c0-17.555-11.626-32.428-27.551-37.285c-13.208-36.757-37.594-65.843-54.16-82.565
	c-15.131-15.272-32.011-28.724-47.702-38.569c3.23-6.398,5.061-13.622,5.061-21.272C303.857,21.187,282.756,0,256.819,0
	c-25.932,0-47.03,21.187-47.03,47.229c0,7.652,1.833,14.878,5.064,21.278c-15.619,9.911-32.635,23.419-47.826,38.522
	c-16.915,16.818-41.801,45.959-55.353,82.51c-16.094,4.75-27.882,19.704-27.882,37.379c0,16.335,10.07,30.345,24.299,36.125v4.808
	c-21.663,3.755-38.173,22.776-38.116,45.575c0.06,22.694,16.555,41.593,38.116,45.339v9.094c0,79.479,64.522,144.138,143.83,144.138
	h8.158c79.309,0,143.832-64.66,143.832-144.138v-9.806C425.572,354.3,442.081,335.278,442.025,312.478z M256.818,15.673
	c17.294,0,31.365,14.156,31.365,31.556c0,17.401-14.071,31.557-31.365,31.557c-17.29,0-31.356-14.156-31.356-31.557
	C225.461,29.83,239.528,15.673,256.818,15.673z M178.076,118.145c14.279-14.196,30.595-27.26,46.111-36.951
	c8.465,8.205,19.966,13.266,32.631,13.266c12.678,0,24.191-5.072,32.659-13.289c13.867,8.554,30.035,20.933,45.886,36.933
	c14.423,14.555,35.233,39.119,47.882,69.856H129.148C142.119,157.404,163.347,132.788,178.076,118.145z M85.648,313.39
	c-0.036-14.083,9.482-25.981,22.442-29.491v58.836C95.216,339.252,85.684,327.42,85.648,313.39z M388.237,367.862
	c0,70.837-57.492,128.465-128.159,128.465h-8.158c-70.666,0-128.157-57.628-128.157-128.465v-101.98h10.697v30.578
	c0,38.327,30.937,69.507,68.966,69.507c6.652,0,13.183-1.012,19.427-2.885c5.744,12.632,18.438,21.437,33.149,21.437
	c14.71,0,27.401-8.805,33.145-21.436c6.242,1.871,12.773,2.884,19.425,2.884c38.029,0,68.967-31.18,68.967-69.507v-30.578h10.698
	v101.98H388.237z M256.002,311.384c-20,0-36.282,16.266-36.42,36.312c-5.167,1.683-10.606,2.596-16.155,2.596
	c-29.386,0-53.293-24.149-53.293-53.833v-30.578h211.732v30.578c0,29.683-23.907,53.833-53.294,53.833
	c-5.548,0-10.987-0.912-16.153-2.596C292.28,327.651,276,311.384,256.002,311.384z M276.75,347.951
	c0,11.52-9.308,20.893-20.749,20.893c-11.443,0-20.753-9.373-20.753-20.893s9.31-20.894,20.753-20.894
	C267.442,327.057,276.75,336.431,276.75,347.951z M122.595,250.208c-12.755,0-23.132-10.447-23.132-23.288
	c0-12.841,10.377-23.288,23.132-23.288h266.806c12.755,0,23.133,10.447,23.133,23.288c0,12.841-10.378,23.288-23.133,23.288H122.595
	z M403.91,342.025v-58.858c12.874,3.479,22.405,15.318,22.441,29.35C426.386,326.618,416.847,338.532,403.91,342.025z"/>
<g>
</g>
<g>
</g>
<g>
</g>
<g>
</g>
<g>
</g>
<g>
</g>
<g>
</g>
<g>
</g>
<g>
</g>
<g>
</g>
<g>
</g>
<g>
</g>
<g>
</g>
<g>
</g>
<g>
</g>
</svg>
